<?xml version="1.0" encoding="utf-8"?>
<!-- Generator: Adobe Illustrator 27.5.0, SVG Export Plug-In . SVG Version: 6.00 Build 0)  -->
<svg version="1.1" xmlns="http://www.w3.org/2000/svg" xmlns:xlink="http://www.w3.org/1999/xlink" x="0px" y="0px"
	 viewBox="0 0 750 500" style="enable-background:new 0 0 750 500;" xml:space="preserve">
<g id="BACKGROUND">
	<rect style="fill:#FAEAD6;" width="750" height="500"/>
	<g>
		<defs>
			<rect id="SVGID_1_" transform="matrix(-1 -1.224647e-16 1.224647e-16 -1 750 500)" width="750" height="500"/>
		</defs>
		<clipPath id="SVGID_00000137115933131761878380000013434193033043016601_">
			<use xlink:href="#SVGID_1_"  style="overflow:visible;"/>
		</clipPath>
		<path style="clip-path:url(#SVGID_00000137115933131761878380000013434193033043016601_);fill:#EDD7BD;" d="M405.959,329.03
			l-599.138-0.013c1.371,118.704-5.342,225.247-3.972,343.952c75.227-11.797,150.454-23.594,225.682-35.391
			c17.712-2.778,36.8-6.253,49.097-19.301c12.296-13.048,11.617-38.967-5.237-45.083c-13.285-4.82-31.406,3.745-40.451-7.285
			c-4.666-5.69-4.465-13.931-0.091-19.849c8.283-11.208,21.8-12.528,34.409-13.526c92.044-7.286,184.088-14.573,276.132-21.859
			c18.387-1.456,38.36-3.594,51.638-16.398c13.277-12.803,12.75-40.091-4.818-45.711c-14.677-4.695-35.254,6.395-43.802-6.427
			c-6.706-10.06,4.28-23.735,16.149-26.04c11.868-2.306,24.014,1.844,36.103,1.687c20.21-0.262,39.604-13.836,46.77-32.735
			c0.224-0.59,0.435-1.185,0.635-1.783C453.862,356.852,433.796,329.59,405.959,329.03z"/>
		<path style="clip-path:url(#SVGID_00000137115933131761878380000013434193033043016601_);fill:#EDD7BD;" d="M146.546,109.312
			c8.684-1.56,16.182-8.443,18.479-16.962c2.296-8.519-0.726-18.238-7.449-23.952c-8.587-7.298-20.951-7.477-32.219-7.285
			c-12.947,0.221-25.894,0.442-38.841,0.662c-7.637,0.13-17.35-1.189-19.398-8.547c-2.045-7.346,6.105-13.813,13.669-14.778
			c7.564-0.964,15.39,1.113,22.802-0.677c8.192-1.979,14.951-8.971,16.651-17.225c1.7-8.254-1.746-17.348-8.49-22.403
			c-7.291-5.465-17.038-5.97-26.145-6.261C51.43-9.207,17.254-10.3-16.922-11.392c-2.163,40.836-4.771,82.092-6.934,122.928
			L146.546,109.312z"/>
	</g>
	<g>
		<g>
			<path style="fill:#EDD7BD;" d="M480.039,470.79H438.54l-10.696,20.25h-16.97l53.049-99.254h18.824l17.968,99.254h-17.113
				L480.039,470.79z M477.9,458.099l-8.129-46.632l-24.528,46.632H477.9z"/>
		</g>
		<g>
			<path style="fill:#EDD7BD;" d="M339.744,221.628c4.425,5.56,6.637,11.858,6.637,18.891c0,6.016-1.561,11.432-4.68,16.254
				c-3.121,4.824-7.631,8.624-13.53,11.403c-5.901,2.782-12.765,4.17-20.594,4.17h-47.314V154.06h45.102
				c8.055,0,14.977,1.362,20.764,4.085c5.786,2.723,10.153,6.382,13.105,10.977c2.948,4.595,4.425,9.731,4.425,15.403
				c0,6.808-1.816,12.483-5.446,17.02c-3.633,4.54-8.511,7.888-14.638,10.041C329.928,212.721,335.319,216.07,339.744,221.628z
				 M279.665,203.757h23.997c6.353,0,11.319-1.447,14.892-4.34c3.573-2.894,5.361-7.063,5.361-12.509
				c0-5.332-1.788-9.502-5.361-12.51c-3.574-3.005-8.539-4.51-14.892-4.51h-23.997V203.757z M321.362,251.752
				c3.745-3.175,5.617-7.6,5.617-13.275c0-5.786-1.987-10.382-5.957-13.785c-3.973-3.404-9.249-5.106-15.828-5.106h-25.53v36.932
				h26.21C312.454,256.517,317.619,254.93,321.362,251.752z"/>
		</g>
	</g>
</g>
<g id="OBJECTS">
	<g>
		<path style="fill:#835499;" d="M0-0.005v203.06c10.62-3.08,25.4-5.27,40.03-0.54c9.07,2.92,18.9,2.18,27.65-1.58
			c17.1-7.35,46.2-11.08,66.83,32.77c9.33,19.83-0.11-45.61,13.66-62.65c10.77-13.33,27.45-20.56,44.13-24.49
			c16.67-3.94,33.91-5.08,50.61-8.91c26.77-6.14,51.89-19.3,72.18-37.81c13.38-12.2,25.38-27.13,42.44-33.2
			c14.55-5.18,30.59-3.08,45.89-5.18c36.72-5.03,64.87-32.99,89.43-61.47H0z"/>
	</g>
	<g>
		<path style="fill:none;stroke:#FFFFFF;stroke-width:1.3;stroke-linecap:round;stroke-linejoin:round;stroke-miterlimit:10;" d="
			M168.861,0c-0.57,2.231-1.028,4.49-1.368,6.768c-1.192,7.974-0.377,17.37,6.101,22.17c7.758,5.749,18.761,1.705,27.089-3.183
			c12.442-7.302,23.824-16.09,34.565-25.698"/>
		<path style="fill:none;stroke:#FFFFFF;stroke-width:1.3;stroke-linecap:round;stroke-linejoin:round;stroke-miterlimit:10;" d="
			M438.518,0.001c0.56,5.002,1.502,9.962,2.838,14.822c1.534,5.583,3.613,11.137,7.228,15.659c2.039,2.551,4.491,4.674,7.212,6.426"
			/>
		<path style="fill:none;stroke:#FFFFFF;stroke-width:1.3;stroke-linecap:round;stroke-linejoin:round;stroke-miterlimit:10;" d="
			M454.3,0.001c0.634,8.905,4.123,17.979,12.114,21.342c1.193,0.502,2.413,0.846,3.651,1.055"/>
		<path style="fill:none;stroke:#FFFFFF;stroke-width:1.3;stroke-linecap:round;stroke-linejoin:round;stroke-miterlimit:10;" d="
			M0,31.582c9.525-1.188,18.781-4.073,26.898-9.138C35.426,17.123,42.51,9.173,46.442,0"/>
		<path style="fill:none;stroke:#FFFFFF;stroke-width:1.3;stroke-linecap:round;stroke-linejoin:round;stroke-miterlimit:10;" d="
			M0,147.591c23.042,5.036,43.476,22.852,49.833,45.753c1.019,3.67,1.73,6.679,2.018,10.447"/>
		<path style="fill:none;stroke:#FFFFFF;stroke-width:1.3;stroke-linecap:round;stroke-linejoin:round;stroke-miterlimit:10;" d="
			M219.939,142.767c6.531-8.855,13.337-17.507,21.205-25.177c10.302-10.042,22.622-18.413,36.543-22.046
			c7.917-2.066,16.974-2.364,23.634,2.388c2.887,2.06,5.048,4.932,6.46,8.179"/>
	</g>
	<g>
		<g>
			<path style="fill:#C093E3;" d="M88.574,233.532c4.945,15.304-3.453,31.719-18.758,36.664
				c-15.304,4.945-31.719-3.453-36.664-18.757c-4.945-15.304,3.453-31.719,18.757-36.664
				C67.214,209.83,83.629,218.228,88.574,233.532z"/>
			<path style="fill:none;stroke:#261727;stroke-width:1.3;stroke-linecap:round;stroke-linejoin:round;stroke-miterlimit:10;" d="
				M69.816,270.196c-15.304,4.945-31.719-3.453-36.664-18.757c-4.945-15.304,3.453-31.719,18.757-36.664"/>
			<path style="fill:#276B60;" d="M114.068,225.295c-0.682-2.109-3.388-4.641-18.957-2.28c-3.348,0.508-7.012,1.202-10.903,2.058
				c0.745,1,1.43,2.055,2.049,3.161c2.918-0.623,5.696-1.15,8.287-1.566c11.566-1.858,15.5-0.879,16.15-0.283
				c-0.178,0.863-2.796,3.959-13.263,9.22c-9.044,4.546-21.257,9.386-34.388,13.628c-13.131,4.243-25.867,7.463-35.861,9.069
				c-11.567,1.858-15.501,0.88-16.151,0.284c0.179-0.863,2.796-3.959,13.263-9.22c2.343-1.178,4.903-2.375,7.632-3.577
				c-0.145-1.261-0.2-2.518-0.181-3.765c-3.657,1.583-7.037,3.164-10.05,4.712C7.69,253.931,6.976,257.567,7.658,259.676
				c0.681,2.109,3.388,4.641,18.957,2.28c10.338-1.567,23.66-4.895,37.512-9.371c13.852-4.476,26.602-9.572,35.903-14.349
				C114.036,231.041,114.75,227.404,114.068,225.295z"/>
		</g>
		<g>
			<g>
				<path style="fill:#FDB358;" d="M236.293,272.352c5.291,0.665,10.48,1.563,15.551,2.677c2.903-0.986,5.842-2.06,8.815-3.235
					c3.404-1.345,6.701-2.757,9.892-4.227c-3.373-2.598-6.856-5.111-10.444-7.53c4.483,1.95,8.839,4.054,13.061,6.298
					c4.885-2.345,9.504-4.833,13.794-7.452c-2.258-1.957-4.572-3.875-6.94-5.754c3.132,1.373,6.204,2.82,9.213,4.337
					c6.414-4.109,12.023-8.522,16.281-13.238c-9.182-7.841-25.253-12.875-43.574-10.987c-3.332,4.122-6.457,8.327-9.375,12.598
					c1.672-4.054,3.487-8.089,5.445-12.097c-3.155,0.482-6.347,1.16-9.542,2.054c-5.593,1.564-10.851,3.686-15.651,6.213
					c-1.702,2.83-3.324,5.682-4.866,8.55c0.384-2.172,0.799-4.346,1.247-6.52c-16.759,9.99-26.317,24.694-27.049,36.584
					c11.992,3.337,27.873,1.105,44.626-3.958C243.356,275.133,239.861,273.693,236.293,272.352z"/>
			</g>
			
				<path style="fill:none;stroke:#261727;stroke-width:1.0573;stroke-linecap:round;stroke-linejoin:round;stroke-miterlimit:10;" d="
				M301.437,244.484c-41.507,3.03-80.686,19.201-112.301,46.413"/>
			<g>
				<path style="fill:#261727;" d="M290.873,249.251c-0.153-0.091-0.354-0.047-0.447,0.098c-0.041,0.064-0.055,0.137-0.044,0.206
					c0.014,0.088,0.067,0.169,0.153,0.22c1.763,1.041,3.503,2.105,5.217,3.191c0.177-0.132,0.348-0.268,0.523-0.401
					C294.5,251.437,292.699,250.332,290.873,249.251z"/>
				<path style="fill:#261727;" d="M291.324,252.111c-0.151-0.091-0.349-0.048-0.441,0.097c-0.041,0.064-0.054,0.137-0.043,0.206
					c0.014,0.088,0.066,0.169,0.151,0.22c0.952,0.571,1.897,1.148,2.835,1.733c0.182-0.129,0.366-0.257,0.546-0.387
					C293.365,253.35,292.348,252.727,291.324,252.111z"/>
				<path style="fill:#261727;" d="M223.738,277.1c-0.169-0.03-0.333,0.083-0.366,0.254c-0.014,0.075-0.001,0.149,0.033,0.211
					c0.043,0.078,0.119,0.136,0.213,0.153c3.576,0.64,7.099,1.384,10.564,2.229c0.452-0.096,0.907-0.197,1.362-0.299
					C231.68,278.672,227.743,277.821,223.738,277.1z"/>
				<path style="fill:#261727;" d="M289.469,243.109c-0.069,0.071-0.095,0.163-0.081,0.251c0.011,0.069,0.048,0.136,0.109,0.186
					c0.138,0.114,0.349,0.103,0.472-0.024c1.793-1.853,3.638-3.68,5.535-5.479c-0.214-0.097-0.429-0.193-0.646-0.287
					C293.013,239.514,291.216,241.299,289.469,243.109z"/>
				<path style="fill:#261727;" d="M220.483,273.397c0.043,0.078,0.12,0.135,0.216,0.151c7.103,1.162,14.007,2.73,20.675,4.666
					c0.38-0.102,0.759-0.2,1.14-0.305c-6.982-2.079-14.225-3.755-21.689-4.984c-0.172-0.028-0.34,0.088-0.375,0.261
					C220.436,273.262,220.449,273.336,220.483,273.397z"/>
				<path style="fill:#261727;" d="M269.556,253.327c-0.034,0.069-0.04,0.143-0.022,0.211c0.023,0.086,0.083,0.162,0.173,0.203
					c4.795,2.203,9.443,4.579,13.934,7.11c0.206-0.118,0.409-0.238,0.614-0.356c-4.594-2.607-9.354-5.051-14.268-7.314
					C269.827,253.106,269.634,253.171,269.556,253.327z"/>
				<path style="fill:#261727;" d="M241.028,262.895c-0.024,0.074-0.019,0.148,0.009,0.213c0.035,0.082,0.105,0.148,0.199,0.175
					c7.45,2.146,14.627,4.722,21.493,7.678c0.263-0.107,0.523-0.216,0.785-0.324c-7.045-3.069-14.42-5.739-22.084-7.955
					C241.261,262.633,241.081,262.728,241.028,262.895z"/>
				<path style="fill:#261727;" d="M260.353,255.867c-0.031,0.07-0.033,0.145-0.012,0.212c0.027,0.085,0.091,0.158,0.181,0.194
					c5.886,2.376,11.568,5.014,17.027,7.885c0.22-0.114,0.438-0.229,0.657-0.343c-5.583-2.96-11.4-5.675-17.432-8.117
					C260.612,255.633,260.423,255.708,260.353,255.867z"/>
				<path style="fill:#261727;" d="M234.618,265.769c-0.021,0.074-0.014,0.149,0.016,0.213c0.037,0.081,0.11,0.144,0.204,0.168
					c7.658,1.912,15.044,4.283,22.118,7.06c0.283-0.105,0.566-0.213,0.849-0.32c-7.279-2.899-14.892-5.367-22.794-7.348
					C234.843,265.499,234.666,265.601,234.618,265.769z"/>
				<path style="fill:#261727;" d="M212.581,267.173c0.035,0.061,0.093,0.108,0.167,0.132c0.168,0.052,0.359-0.043,0.425-0.211
					c2.307-5.825,4.917-11.62,7.834-17.356c-0.419,0.337-0.835,0.676-1.241,1.02c-2.664,5.341-5.064,10.731-7.203,16.147
					C212.527,266.999,212.536,267.096,212.581,267.173z"/>
				<path style="fill:#261727;" d="M244.986,244.297c-0.055,0.086-0.064,0.183-0.034,0.266c0.024,0.066,0.074,0.123,0.145,0.16
					c0.16,0.082,0.37,0.024,0.469-0.129c2.133-3.293,4.383-6.552,6.751-9.769c-0.328,0.074-0.656,0.153-0.984,0.231
					C249.113,238.102,246.997,241.184,244.986,244.297z"/>
				<path style="fill:#261727;" d="M222.563,253.808c0.168,0.063,0.37-0.02,0.452-0.185c1.429-2.87,2.936-5.726,4.52-8.563
					c-0.396,0.251-0.782,0.508-1.169,0.765c-1.38,2.511-2.7,5.035-3.959,7.571c-0.046,0.092-0.044,0.19-0.005,0.27
					C222.433,253.729,222.488,253.781,222.563,253.808z"/>
				<path style="fill:#261727;" d="M280.458,243.593c-0.066,0.074-0.088,0.168-0.07,0.255c0.014,0.069,0.053,0.134,0.116,0.181
					c0.143,0.108,0.353,0.088,0.471-0.045c2.529-2.854,5.173-5.658,7.93-8.402c-0.237-0.072-0.477-0.141-0.717-0.21
					C285.502,238.059,282.926,240.802,280.458,243.593z"/>
				<path style="fill:#261727;" d="M228.402,261.208c0.163,0.067,0.358-0.011,0.436-0.172c3.807-7.849,8.214-15.594,13.23-23.153
					c-0.348,0.129-0.698,0.256-1.042,0.389c-4.829,7.36-9.086,14.893-12.777,22.522c-0.044,0.09-0.041,0.188-0.003,0.268
					C228.276,261.127,228.33,261.179,228.402,261.208z"/>
				<path style="fill:#261727;" d="M233.962,258.349c0.029,0.064,0.081,0.118,0.152,0.15c0.161,0.072,0.359,0.001,0.441-0.158
					c4.003-7.648,8.596-15.177,13.785-22.506c-0.34,0.096-0.676,0.198-1.013,0.298c-5.013,7.154-9.463,14.495-13.355,21.949
					C233.926,258.17,233.925,258.267,233.962,258.349z"/>
				<path style="fill:#261727;" d="M253.714,250.869c4.051-6.14,8.533-12.15,13.444-17.977c-0.295,0.01-0.592,0.021-0.888,0.035
					c-4.783,5.719-9.154,11.61-13.114,17.625c-0.055,0.083-0.065,0.179-0.036,0.264c0.023,0.067,0.07,0.126,0.138,0.164
					C253.412,251.067,253.616,251.018,253.714,250.869z"/>
				<path style="fill:#261727;" d="M258.507,249.353c3.921-5.63,8.216-11.138,12.884-16.481c-0.286-0.007-0.573-0.011-0.86-0.014
					c-4.549,5.245-8.741,10.646-12.575,16.165c-0.057,0.081-0.069,0.177-0.042,0.262c0.021,0.067,0.067,0.127,0.134,0.167
					C258.201,249.543,258.406,249.499,258.507,249.353z"/>
				<path style="fill:#261727;" d="M269.939,244.851c-0.062,0.078-0.08,0.172-0.058,0.259c0.017,0.068,0.059,0.131,0.125,0.175
					c0.148,0.101,0.357,0.069,0.468-0.07c3.137-3.93,6.474-7.78,10.008-11.536c-0.262-0.041-0.522-0.084-0.786-0.122
					C276.254,237.236,273.001,241.006,269.939,244.851z"/>
			</g>
		</g>
		<g>
			<g>
				<g>
					<g>
						<g>
							<g>
								<g>
									<path style="fill:#FFFFFF;" d="M240.713,194.81v23.383c0,3.091-1.446,5.599-3.229,5.599h-52.905l-7.391,4.599
										c-0.759,0.473-1.485-0.821-1.194-2.123l2.796-12.521V194.81c0-3.091,1.446-5.599,3.23-5.599h55.465
										C239.267,189.211,240.713,191.719,240.713,194.81z"/>
								</g>
							</g>
						</g>
					</g>
				</g>
			</g>
			<g>
				<g>
					<g>
						<g>
							<g>
								<g>
									
										<path style="fill:none;stroke:#261727;stroke-width:1.3;stroke-linecap:round;stroke-linejoin:round;stroke-miterlimit:10;" d="
										M182.019,189.211h55.465c1.783,0,3.229,2.508,3.229,5.599v23.383c0,3.091-1.446,5.599-3.229,5.599h-21.144"/>
								</g>
							</g>
						</g>
					</g>
				</g>
			</g>
			<path style="fill:#BE2D29;" d="M221.964,203.052L221.964,203.052c0.003-0.082,0.006-0.165,0.006-0.248
				c0-3.338-2.816-6.232-6.289-6.232c-2.539,0-4.726,1.635-5.719,3.717h-0.001c-0.993-2.083-3.179-3.717-5.719-3.717
				c-3.473,0-6.289,2.894-6.289,6.232c0,0.083,0.003,0.166,0.007,0.248h-0.001c0,0-0.355,3.966,4.058,8.295
				c2.007,2.01,4.251,3.921,7.944,6.923c3.693-3.002,5.938-4.913,7.944-6.923C222.319,207.017,221.964,203.052,221.964,203.052z"/>
		</g>
	</g>
	<g>
		<g>
			<path style="fill:#EE5D4A;" d="M82.338,441.414h219.483c10.239,0,18.54-8.301,18.54-18.54l0,0c0-10.239-8.301-18.54-18.54-18.54
				H82.338V441.414z"/>
			<g>
				<path style="fill:#BE2D29;" d="M153.51,441.414h148.311c3.566,0,6.895-1.009,9.722-2.753H153.51V441.414z"/>
				<path style="fill:#BE2D29;" d="M153.51,404.333v2.753h158.033c-2.827-1.745-6.156-2.753-9.722-2.753H153.51z"/>
			</g>
			<path style="fill:#EE5D4A;" d="M155.913,404.333H51.677v2.753h16.446v31.573H51.677v2.753h104.237
				c10.239,0,18.54-8.301,18.54-18.54l0,0C174.454,412.634,166.153,404.333,155.913,404.333z"/>
			<path style="fill:#BE2D29;" d="M297.249,404.333h-8.795c9.354,1.25,16.584,9.085,16.584,18.54c0,9.454-7.229,17.289-16.582,18.54
				h8.794c6.418-3.795,10.718-10.685,10.718-18.54C307.968,415.018,303.667,408.128,297.249,404.333z"/>
			<path style="fill:#BE2D29;" d="M184.453,404.333h-8.795c9.354,1.25,16.584,9.085,16.584,18.54c0,9.454-7.229,17.289-16.582,18.54
				h8.794c6.418-3.795,10.718-10.685,10.718-18.54C195.171,415.018,190.871,408.128,184.453,404.333z"/>
			<path style="fill:#BE2D29;" d="M204.334,432.506l1.35-3.079c0.91-2.076,1.371-4.28,1.371-6.553c0-2.273-0.461-4.478-1.371-6.553
				l-1.35-3.079h82.502l0.577,1.315c1.155,2.634,1.741,5.433,1.741,8.317s-0.586,5.683-1.741,8.317l-0.577,1.315H204.334z"/>
			<path style="fill:#BE2D29;" d="M286.956,422.874c0-2.645-0.558-5.159-1.556-7.435h-77.704c0.998,2.277,1.556,4.79,1.556,7.435
				l0,0c0,2.645-0.558,5.159-1.556,7.435H285.4C286.398,428.032,286.956,425.519,286.956,422.874L286.956,422.874z"/>
			<path style="fill:#FFFFFF;" d="M56.039,438.66l-0.362-0.664c-0.22-0.403-0.22-0.907,0-1.309l0.005-0.009
				c0.22-0.403,0.22-0.907,0-1.31l-0.003-0.006c-0.22-0.403-0.22-0.908,0-1.311l0.003-0.005c0.22-0.403,0.22-0.908,0-1.311
				l-0.003-0.005c-0.22-0.403-0.22-0.909,0-1.312l0.002-0.003c0.221-0.403,0.221-0.909,0-1.312l-0.003-0.005
				c-0.22-0.403-0.22-0.908,0-1.311l0.003-0.005c0.22-0.403,0.22-0.908,0-1.311l-0.002-0.004c-0.221-0.403-0.221-0.909,0-1.312
				l0.002-0.003c0.221-0.403,0.221-0.909,0-1.312l-0.002-0.004c-0.221-0.403-0.22-0.909,0-1.312l0.001-0.003
				c0.221-0.403,0.221-0.909,0-1.312l-0.002-0.003c-0.221-0.404-0.221-0.909,0-1.313l0.001-0.002c0.221-0.403,0.221-0.909,0-1.313
				l-0.001-0.003c-0.221-0.404-0.221-0.909,0-1.313l0.001-0.001c0.221-0.404,0.221-0.91,0-1.313l0,0
				c-0.221-0.403-0.221-0.909,0-1.313l0.001-0.002c0.221-0.403,0.221-0.909,0-1.312l-0.002-0.003c-0.221-0.403-0.221-0.909,0-1.312
				l0.001-0.003c0.221-0.403,0.221-0.909,0-1.312l-0.002-0.003c-0.221-0.403-0.221-0.909,0-1.312l0.001-0.003
				c0.221-0.403,0.221-0.909,0-1.312l-0.001-0.003c-0.221-0.403-0.221-0.909,0-1.312l0.36-0.659h99.764
				c8.719,0,15.787,7.068,15.787,15.787l0,0c0,8.719-7.068,15.787-15.787,15.787H56.039z"/>
			<g>
				
					<line style="fill:none;stroke:#261727;stroke-linecap:round;stroke-linejoin:round;stroke-miterlimit:10;" x1="57.994" y1="409.827" x2="159.896" y2="409.827"/>
				
					<line style="fill:none;stroke:#261727;stroke-linecap:round;stroke-linejoin:round;stroke-miterlimit:10;" x1="57.994" y1="412.436" x2="162.986" y2="412.436"/>
				
					<line style="fill:none;stroke:#261727;stroke-linecap:round;stroke-linejoin:round;stroke-miterlimit:10;" x1="57.994" y1="415.046" x2="166.626" y2="415.046"/>
				
					<line style="fill:none;stroke:#261727;stroke-linecap:round;stroke-linejoin:round;stroke-miterlimit:10;" x1="57.994" y1="417.655" x2="168.136" y2="417.655"/>
				
					<line style="fill:none;stroke:#261727;stroke-linecap:round;stroke-linejoin:round;stroke-miterlimit:10;" x1="57.994" y1="420.264" x2="168.754" y2="420.264"/>
				
					<line style="fill:none;stroke:#261727;stroke-linecap:round;stroke-linejoin:round;stroke-miterlimit:10;" x1="57.994" y1="422.874" x2="169.269" y2="422.874"/>
				
					<line style="fill:none;stroke:#261727;stroke-linecap:round;stroke-linejoin:round;stroke-miterlimit:10;" x1="57.994" y1="425.483" x2="168.754" y2="425.483"/>
				
					<line style="fill:none;stroke:#261727;stroke-linecap:round;stroke-linejoin:round;stroke-miterlimit:10;" x1="57.994" y1="428.092" x2="168.136" y2="428.092"/>
				
					<line style="fill:none;stroke:#261727;stroke-linecap:round;stroke-linejoin:round;stroke-miterlimit:10;" x1="57.994" y1="430.702" x2="166.626" y2="430.702"/>
				
					<line style="fill:none;stroke:#261727;stroke-linecap:round;stroke-linejoin:round;stroke-miterlimit:10;" x1="57.994" y1="433.311" x2="162.986" y2="433.311"/>
				
					<line style="fill:none;stroke:#261727;stroke-linecap:round;stroke-linejoin:round;stroke-miterlimit:10;" x1="57.994" y1="435.92" x2="159.896" y2="435.92"/>
			</g>
		</g>
		<g>
			<path style="fill:#276B60;" d="M244.274,441.414H47.308c-10.36,0-18.759,8.399-18.759,18.759l0,0
				c0,10.36,8.399,18.759,18.759,18.759h196.966V441.414z"/>
			<g>
				<path style="fill:#276B60;" d="M37.175,475.956c2.923,1.881,6.399,2.976,10.133,2.976h196.966v-2.976H37.175z"/>
				<path style="fill:#276B60;" d="M37.175,444.39h207.099v-2.976H47.308C43.575,441.414,40.098,442.509,37.175,444.39z"/>
			</g>
			<path style="fill:#276B60;" d="M317.487,475.959v-31.573h15.656v-2.972H218.255c-10.36,0-18.759,8.399-18.759,18.759l0,0
				c0,10.36,8.399,18.759,18.759,18.759h114.888v-2.972H317.487z"/>
			<g>
				<path style="fill:#FFFFFF;" d="M330.19,475.959l0.362-0.664c0.22-0.403,0.22-0.907,0-1.309l-0.005-0.009
					c-0.22-0.403-0.22-0.908,0-1.31l0.004-0.006c0.22-0.403,0.22-0.908,0-1.311l-0.003-0.005c-0.22-0.403-0.22-0.908,0-1.311
					l0.003-0.005c0.22-0.403,0.22-0.909,0-1.312l-0.002-0.003c-0.221-0.403-0.221-0.908,0-1.312l0.003-0.005
					c0.22-0.403,0.22-0.908,0-1.311l-0.003-0.005c-0.22-0.403-0.22-0.908,0-1.311l0.002-0.004c0.22-0.403,0.22-0.909,0-1.312
					l-0.002-0.003c-0.221-0.403-0.221-0.909,0-1.312l0.002-0.004c0.22-0.403,0.22-0.909,0-1.312l-0.001-0.003
					c-0.221-0.403-0.221-0.909,0-1.312l0.001-0.003c0.221-0.403,0.221-0.909,0-1.313l-0.001-0.002c-0.221-0.403-0.221-0.909,0-1.313
					l0.001-0.003c0.221-0.404,0.221-0.909,0-1.313l-0.001-0.001c-0.221-0.404-0.221-0.91,0-1.314l0,0
					c0.221-0.403,0.221-0.909,0-1.313l-0.001-0.003c-0.221-0.403-0.221-0.909,0-1.312l0.002-0.003c0.221-0.403,0.221-0.909,0-1.312
					l-0.001-0.003c-0.221-0.403-0.221-0.909,0-1.312l0.002-0.003c0.221-0.403,0.221-0.909,0-1.312l-0.001-0.002
					c-0.221-0.403-0.221-0.909,0-1.312l0.001-0.003c0.221-0.403,0.221-0.909,0-1.312l-0.36-0.659H218.74
					c-8.719,0-15.787,7.068-15.787,15.787l0,0c0,8.719,7.068,15.787,15.787,15.787H330.19z"/>
				<g>
					
						<line style="fill:none;stroke:#261727;stroke-linecap:round;stroke-linejoin:round;stroke-miterlimit:10;" x1="328.235" y1="447.126" x2="214.648" y2="447.126"/>
					
						<line style="fill:none;stroke:#261727;stroke-linecap:round;stroke-linejoin:round;stroke-miterlimit:10;" x1="328.235" y1="449.735" x2="211.558" y2="449.735"/>
					
						<line style="fill:none;stroke:#261727;stroke-linecap:round;stroke-linejoin:round;stroke-miterlimit:10;" x1="328.235" y1="452.345" x2="207.918" y2="452.345"/>
					
						<line style="fill:none;stroke:#261727;stroke-linecap:round;stroke-linejoin:round;stroke-miterlimit:10;" x1="328.235" y1="454.954" x2="206.408" y2="454.954"/>
					
						<line style="fill:none;stroke:#261727;stroke-linecap:round;stroke-linejoin:round;stroke-miterlimit:10;" x1="328.235" y1="457.563" x2="205.79" y2="457.563"/>
					
						<line style="fill:none;stroke:#261727;stroke-linecap:round;stroke-linejoin:round;stroke-miterlimit:10;" x1="328.235" y1="460.173" x2="205.275" y2="460.173"/>
					
						<line style="fill:none;stroke:#261727;stroke-linecap:round;stroke-linejoin:round;stroke-miterlimit:10;" x1="328.235" y1="462.782" x2="205.79" y2="462.782"/>
					
						<line style="fill:none;stroke:#261727;stroke-linecap:round;stroke-linejoin:round;stroke-miterlimit:10;" x1="328.235" y1="465.391" x2="206.408" y2="465.391"/>
					
						<line style="fill:none;stroke:#261727;stroke-linecap:round;stroke-linejoin:round;stroke-miterlimit:10;" x1="328.235" y1="468.001" x2="207.918" y2="468.001"/>
					
						<line style="fill:none;stroke:#261727;stroke-linecap:round;stroke-linejoin:round;stroke-miterlimit:10;" x1="328.235" y1="470.61" x2="211.558" y2="470.61"/>
					
						<line style="fill:none;stroke:#261727;stroke-linecap:round;stroke-linejoin:round;stroke-miterlimit:10;" x1="328.235" y1="473.219" x2="214.648" y2="473.219"/>
				</g>
			</g>
		</g>
		<g>
			<path style="fill:#C093E3;" d="M197.288,383.703H87.697c-5.764,0-10.437,4.673-10.437,10.437l0,0
				c0,5.764,4.673,10.437,10.437,10.437h109.591V383.703z"/>
			<g>
				<path style="fill:#835499;" d="M82.059,402.922c1.626,1.046,3.56,1.656,5.638,1.656h109.591v-1.656H82.059z"/>
				<path style="fill:#835499;" d="M82.059,385.359h115.229v-1.656H87.697C85.619,383.703,83.685,384.312,82.059,385.359z"/>
			</g>
			<path style="fill:#835499;" d="M238.023,402.924v-17.567h8.711v-1.654h-63.923c-5.764,0-10.437,4.673-10.437,10.437l0,0
				c0,5.764,4.673,10.437,10.437,10.437h63.923v-1.654H238.023z"/>
			<g>
				<path style="fill:#FFFFFF;" d="M245.091,402.924l0.202-0.37c0.122-0.224,0.122-0.504,0-0.728l-0.003-0.005
					c-0.122-0.224-0.122-0.505,0-0.729l0.002-0.004c0.123-0.224,0.123-0.505,0-0.729l-0.002-0.003c-0.122-0.224-0.122-0.505,0-0.73
					l0.001-0.003c0.123-0.224,0.123-0.505,0-0.73l-0.001-0.002c-0.123-0.224-0.123-0.505,0-0.73l0.001-0.003
					c0.122-0.224,0.122-0.505,0-0.729l-0.002-0.003c-0.122-0.224-0.122-0.505,0-0.73l0.001-0.002c0.123-0.224,0.123-0.505,0-0.73
					l-0.001-0.002c-0.123-0.224-0.123-0.505,0-0.73l0.001-0.002c0.123-0.224,0.123-0.506,0-0.73l-0.001-0.001
					c-0.123-0.224-0.123-0.506,0-0.73l0.001-0.002c0.123-0.225,0.123-0.506,0-0.73l-0.001-0.001c-0.123-0.224-0.123-0.506,0-0.73
					l0.001-0.001c0.123-0.225,0.123-0.506,0-0.73l0-0.001c-0.123-0.225-0.123-0.506,0-0.731l0,0c0.123-0.225,0.123-0.506,0-0.731
					l-0.001-0.001c-0.123-0.224-0.123-0.506,0-0.73l0.001-0.002c0.123-0.224,0.123-0.506,0-0.73l-0.001-0.002
					c-0.123-0.224-0.123-0.506,0-0.73l0.001-0.002c0.123-0.225,0.123-0.506,0-0.73l-0.001-0.001c-0.123-0.224-0.123-0.506,0-0.73
					l0.001-0.002c0.123-0.224,0.123-0.506,0-0.73l-0.201-0.366h-62.01c-4.851,0-8.784,3.933-8.784,8.784l0,0
					c0,4.851,3.933,8.784,8.784,8.784H245.091z"/>
				<g>
					
						<line style="fill:none;stroke:#261727;stroke-width:0.4;stroke-linecap:round;stroke-linejoin:round;stroke-miterlimit:10;" x1="244.003" y1="386.881" x2="180.803" y2="386.881"/>
					
						<line style="fill:none;stroke:#261727;stroke-width:0.4;stroke-linecap:round;stroke-linejoin:round;stroke-miterlimit:10;" x1="244.003" y1="388.333" x2="179.084" y2="388.333"/>
					
						<line style="fill:none;stroke:#261727;stroke-width:0.4;stroke-linecap:round;stroke-linejoin:round;stroke-miterlimit:10;" x1="244.003" y1="389.785" x2="177.059" y2="389.785"/>
					
						<line style="fill:none;stroke:#261727;stroke-width:0.4;stroke-linecap:round;stroke-linejoin:round;stroke-miterlimit:10;" x1="244.003" y1="391.237" x2="176.219" y2="391.237"/>
					
						<line style="fill:none;stroke:#261727;stroke-width:0.4;stroke-linecap:round;stroke-linejoin:round;stroke-miterlimit:10;" x1="244.003" y1="392.688" x2="175.875" y2="392.688"/>
					
						<line style="fill:none;stroke:#261727;stroke-width:0.4;stroke-linecap:round;stroke-linejoin:round;stroke-miterlimit:10;" x1="244.003" y1="394.14" x2="175.588" y2="394.14"/>
					
						<line style="fill:none;stroke:#261727;stroke-width:0.4;stroke-linecap:round;stroke-linejoin:round;stroke-miterlimit:10;" x1="244.003" y1="395.592" x2="175.875" y2="395.592"/>
					
						<line style="fill:none;stroke:#261727;stroke-width:0.4;stroke-linecap:round;stroke-linejoin:round;stroke-miterlimit:10;" x1="244.003" y1="397.044" x2="176.219" y2="397.044"/>
					
						<line style="fill:none;stroke:#261727;stroke-width:0.4;stroke-linecap:round;stroke-linejoin:round;stroke-miterlimit:10;" x1="244.003" y1="398.496" x2="177.059" y2="398.496"/>
					
						<line style="fill:none;stroke:#261727;stroke-width:0.4;stroke-linecap:round;stroke-linejoin:round;stroke-miterlimit:10;" x1="244.003" y1="399.948" x2="179.084" y2="399.948"/>
					
						<line style="fill:none;stroke:#261727;stroke-width:0.4;stroke-linecap:round;stroke-linejoin:round;stroke-miterlimit:10;" x1="244.003" y1="401.399" x2="180.803" y2="401.399"/>
				</g>
			</g>
		</g>
		
			<line style="fill:none;stroke:#261727;stroke-width:1.1258;stroke-linecap:round;stroke-linejoin:round;stroke-miterlimit:10;" x1="6.28" y1="478.931" x2="379.842" y2="478.931"/>
	</g>
	<g>
		<g>
			<path style="fill:#FFA48A;" d="M373.438,22.616c-2.457,3.589-7.355,4.504-10.941,2.05c-0.497-0.34-0.941-0.724-1.331-1.152
				l-6.04,8.824l29.347,20.086l20.086-29.347L375.211,2.991l-5.379,7.859c0.54,0.209,1.058,0.484,1.555,0.825
				C374.974,14.129,375.892,19.029,373.438,22.616z"/>
			<path style="fill:#FFA48A;" d="M390.035,33.977c-2.455,3.587-1.538,8.486,2.05,10.941c3.587,2.455,8.486,1.538,10.941-2.05
				c2.455-3.587,1.538-8.486-2.05-10.941C397.389,29.472,392.49,30.39,390.035,33.977z"/>
			<path style="fill:#FFA48A;" d="M384.762,6.071c-2.455,3.587-1.538,8.486,2.05,10.941c3.587,2.455,8.486,1.538,10.941-2.05
				c2.455-3.587,1.538-8.486-2.05-10.941C392.116,1.566,387.218,2.484,384.762,6.071z"/>
			<path style="fill:none;stroke:#FFFFFF;stroke-width:1.3;stroke-linecap:round;stroke-linejoin:round;stroke-miterlimit:10;" d="
				M398.208,6.513c-4.02,1.58-7.932,3.799-10.839,7.101c-2.908,3.302-4.694,7.815-4.015,12.038c0.318,1.973,1.15,3.808,2.247,5.425
				c2.186,3.222,5.59,5.669,9.482,6.087c1.545,0.166,3.132,0.016,4.662,0.262c1.41,0.227,2.748,0.792,3.88,1.638"/>
			<g>
				<defs>
					<path id="SVGID_00000174595979254296693520000003769020287788664221_" d="M400.976,31.927c-0.584-0.4-1.205-0.701-1.842-0.925
						l5.424-7.926l-8.864-6.067c0.785-0.536,1.489-1.217,2.058-2.049c2.455-3.587,1.538-8.486-2.05-10.941
						c-3.587-2.455-8.486-1.537-10.941,2.05c-0.569,0.831-0.949,1.734-1.165,2.66l-8.386-5.74l-5.379,7.859
						c0.54,0.209,1.058,0.484,1.555,0.824c3.586,2.455,4.504,7.355,2.05,10.941c-2.457,3.59-7.355,4.504-10.941,2.05
						c-0.497-0.34-0.941-0.724-1.332-1.152l-6.04,8.824l29.347,20.086l6.084-8.889c0.439,0.513,0.945,0.983,1.529,1.382
						c3.587,2.455,8.486,1.538,10.941-2.05C405.481,39.281,404.563,34.383,400.976,31.927z"/>
				</defs>
				<clipPath id="SVGID_00000042699780591513800280000010538172128125979777_">
					<use xlink:href="#SVGID_00000174595979254296693520000003769020287788664221_"  style="overflow:visible;"/>
				</clipPath>
				
					<path style="clip-path:url(#SVGID_00000042699780591513800280000010538172128125979777_);fill:none;stroke:#FFFFFF;stroke-width:1.3;stroke-linecap:round;stroke-linejoin:round;stroke-miterlimit:10;" d="
					M355.566,36.032c3.336-3.484,8.892-3.599,13.587-2.491c2.156,0.509,4.324,1.257,5.991,2.715c2.183,1.909,3.272,4.993,2.77,7.849
					c-0.502,2.856-2.575,5.385-5.278,6.436"/>
			</g>
		</g>
		<g>
			<path style="fill:#FFFFFF;" d="M151.751,82.399c0,0,42.906-46.136,86.841,1.491C238.592,83.889,199.119,133.059,151.751,82.399z"
				/>
			<path style="fill:#C093E3;" d="M212.12,83.932c0,9.266-7.511,16.777-16.777,16.777c-9.266,0-16.777-7.511-16.777-16.777
				c0-9.266,7.511-16.777,16.777-16.777C204.609,67.155,212.12,74.666,212.12,83.932z"/>
			<polygon style="fill:#261727;" points="195.343,73.74 197.293,79.224 202.55,76.725 200.051,81.982 205.535,83.932 
				200.051,85.882 202.55,91.139 197.293,88.64 195.343,94.124 193.393,88.64 188.136,91.139 190.635,85.882 185.152,83.932 
				190.635,81.982 188.136,76.725 193.393,79.224 			"/>
			<path style="fill:none;stroke:#261727;stroke-width:1.3;stroke-linecap:round;stroke-linejoin:round;stroke-miterlimit:10;" d="
				M195.343,100.709c-9.266,0-16.777-7.511-16.777-16.777c0-9.266,7.511-16.777,16.777-16.777"/>
		</g>
		<g>
			<path style="fill:#FAEAD6;" d="M117.257,22.273l0.822,4.99c0.296,1.795,1.703,3.202,3.498,3.498l4.99,0.822l-4.99,0.822
				c-1.795,0.296-3.202,1.703-3.498,3.498l-0.822,4.99l-0.822-4.99c-0.296-1.795-1.703-3.202-3.498-3.498l-4.99-0.822l4.99-0.822
				c1.795-0.296,3.202-1.703,3.498-3.498L117.257,22.273z"/>
			<path style="fill:#FAEAD6;" d="M95.583,157.745l0.792,4.809c0.285,1.73,1.641,3.087,3.372,3.372l4.81,0.792l-4.81,0.792
				c-1.73,0.285-3.086,1.641-3.372,3.372l-0.792,4.809l-0.792-4.809c-0.285-1.73-1.641-3.087-3.372-3.372l-4.81-0.792l4.81-0.792
				c1.73-0.285,3.087-1.641,3.372-3.372L95.583,157.745z"/>
			<path style="fill:#FAEAD6;" d="M330.717,42.247l0.792,4.81c0.285,1.73,1.641,3.086,3.372,3.371l4.81,0.792l-4.81,0.792
				c-1.73,0.285-3.086,1.641-3.372,3.372l-0.792,4.81l-0.792-4.81c-0.285-1.73-1.641-3.087-3.372-3.372l-4.809-0.792l4.809-0.792
				c1.73-0.285,3.087-1.641,3.372-3.371L330.717,42.247z"/>
			<path style="fill:#FAEAD6;" d="M241.889,22.45l0.822,4.99c0.296,1.795,1.703,3.202,3.498,3.498l4.99,0.822l-4.99,0.822
				c-1.795,0.296-3.202,1.703-3.498,3.498l-0.822,4.99l-0.822-4.99c-0.296-1.795-1.703-3.202-3.498-3.498l-4.99-0.822l4.99-0.822
				c1.795-0.296,3.202-1.703,3.498-3.498L241.889,22.45z"/>
			<g>
				<g>
					<path style="fill:#EE5D4A;" d="M266.016,50.016c1.428-1.072,2.247-2.771,2.194-4.556l-0.011-0.361
						c-0.087-2.946,1.854-5.599,4.753-6.374c2.873-0.768,5.86,0.641,7.293,3.208c-0.481-2.901,0.976-5.864,3.701-7.056
						c2.749-1.202,5.921-0.339,7.69,2.019l0.216,0.288c1.072,1.429,2.771,2.247,4.557,2.194l0.361-0.011
						c2.947-0.087,5.599,1.854,6.374,4.753c0.768,2.873-0.641,5.86-3.208,7.293c2.901-0.481,5.864,0.976,7.056,3.701
						c1.202,2.749,0.339,5.92-2.019,7.69l-0.289,0.216c-1.428,1.072-2.247,2.771-2.194,4.556l0.011,0.361
						c0.087,2.946-1.854,5.599-4.753,6.373c-2.873,0.768-5.86-0.641-7.293-3.208c0.481,2.901-0.976,5.864-3.701,7.055
						c-2.749,1.202-5.921,0.339-7.69-2.019l-0.217-0.289c-1.072-1.428-2.771-2.247-4.556-2.194l-0.361,0.011
						c-2.947,0.087-5.599-1.854-6.374-4.753c-0.768-2.873,0.641-5.86,3.208-7.293c-2.901,0.481-5.864-0.976-7.055-3.701
						c-1.202-2.749-0.339-5.92,2.019-7.69L266.016,50.016z"/>
					<g>
						
							<line style="fill:none;stroke:#261727;stroke-width:0.7197;stroke-linecap:round;stroke-linejoin:round;stroke-miterlimit:10;" x1="296.627" y1="52.572" x2="271.956" y2="61.206"/>
						
							<line style="fill:none;stroke:#261727;stroke-width:0.7197;stroke-linecap:round;stroke-linejoin:round;stroke-miterlimit:10;" x1="281.461" y1="45.408" x2="290.036" y2="69.911"/>
					</g>
					<g>
						<g>
							<g>
								
									<line style="fill:none;stroke:#FFFFFF;stroke-width:1.3;stroke-linecap:round;stroke-linejoin:round;stroke-miterlimit:10;" x1="285.349" y1="56.519" x2="292.978" y2="40.675"/>
								
									<line style="fill:none;stroke:#FFFFFF;stroke-width:1.3;stroke-linecap:round;stroke-linejoin:round;stroke-miterlimit:10;" x1="285.349" y1="56.519" x2="297.806" y2="44.079"/>
								
									<line style="fill:none;stroke:#FFFFFF;stroke-width:1.3;stroke-linecap:round;stroke-linejoin:round;stroke-miterlimit:10;" x1="285.349" y1="56.519" x2="287.306" y2="39.023"/>
							</g>
							<g>
								
									<line style="fill:none;stroke:#FFFFFF;stroke-width:1.3;stroke-linecap:round;stroke-linejoin:round;stroke-miterlimit:10;" x1="285.349" y1="56.519" x2="277.72" y2="72.363"/>
								
									<line style="fill:none;stroke:#FFFFFF;stroke-width:1.3;stroke-linecap:round;stroke-linejoin:round;stroke-miterlimit:10;" x1="285.349" y1="56.519" x2="272.891" y2="68.958"/>
								
									<line style="fill:none;stroke:#FFFFFF;stroke-width:1.3;stroke-linecap:round;stroke-linejoin:round;stroke-miterlimit:10;" x1="285.349" y1="56.519" x2="283.392" y2="74.015"/>
							</g>
						</g>
						<g>
							<g>
								
									<line style="fill:none;stroke:#FFFFFF;stroke-width:1.3;stroke-linecap:round;stroke-linejoin:round;stroke-miterlimit:10;" x1="285.349" y1="56.519" x2="301.193" y2="64.148"/>
								
									<line style="fill:none;stroke:#FFFFFF;stroke-width:1.3;stroke-linecap:round;stroke-linejoin:round;stroke-miterlimit:10;" x1="285.349" y1="56.519" x2="297.788" y2="68.976"/>
								
									<line style="fill:none;stroke:#FFFFFF;stroke-width:1.3;stroke-linecap:round;stroke-linejoin:round;stroke-miterlimit:10;" x1="285.349" y1="56.519" x2="302.844" y2="58.476"/>
							</g>
							<g>
								
									<line style="fill:none;stroke:#FFFFFF;stroke-width:1.3;stroke-linecap:round;stroke-linejoin:round;stroke-miterlimit:10;" x1="285.349" y1="56.519" x2="269.505" y2="48.89"/>
								
									<line style="fill:none;stroke:#FFFFFF;stroke-width:1.3;stroke-linecap:round;stroke-linejoin:round;stroke-miterlimit:10;" x1="285.349" y1="56.519" x2="272.909" y2="44.062"/>
								
									<line style="fill:none;stroke:#FFFFFF;stroke-width:1.3;stroke-linecap:round;stroke-linejoin:round;stroke-miterlimit:10;" x1="285.349" y1="56.519" x2="267.853" y2="54.562"/>
							</g>
						</g>
					</g>
				</g>
				<g>
					<path style="fill:#261727;" d="M286.397,44.071c1.275-1.253,3.415-1.576,5.319-0.66c1.904,0.917,2.986,2.792,2.801,4.57
						c2.757,0.732,4.316,3.286,3.008,6.004l-6.176,6.128l-6.79-1.839l-5.671-4.162l0.94-8.649
						C281.137,42.746,284.106,42.372,286.397,44.071z"/>
					<g>
						
							<line style="fill:none;stroke:#FFFFFF;stroke-width:1.3;stroke-linecap:round;stroke-linejoin:round;stroke-miterlimit:10;" x1="290.755" y1="45.408" x2="284.986" y2="57.389"/>
						
							<line style="fill:none;stroke:#FFFFFF;stroke-width:1.3;stroke-linecap:round;stroke-linejoin:round;stroke-miterlimit:10;" x1="295.175" y1="50.378" x2="284.986" y2="57.389"/>
						
							<line style="fill:none;stroke:#FFFFFF;stroke-width:1.3;stroke-linecap:round;stroke-linejoin:round;stroke-miterlimit:10;" x1="284.114" y1="45.052" x2="284.986" y2="57.389"/>
					</g>
					<path style="fill:#BE2D29;" d="M279.161,51.33c-1.382,2.869,0.676,6.725,4.596,8.612c3.92,1.887,8.217,1.092,9.599-1.778
						c1.382-2.869-0.676-6.725-4.596-8.612C284.84,47.665,280.542,48.461,279.161,51.33z"/>
					<path style="fill:#FFA48A;" d="M281.68,53.127c0,0,2.519-0.21,4.906,0.939c2.387,1.15,3.794,3.25,3.794,3.25
						c3.538-3.765,7.146-3.331,7.146-3.331c-2.244,4.661-7.719,12.351-15.129,8.783c-7.411-3.569-4.812-12.644-2.568-17.304
						C279.828,45.464,282.417,48.014,281.68,53.127z"/>
				</g>
			</g>
		</g>
		<g>
			<path style="fill:#FDB358;" d="M98.058,103.637C84.68,90.543,82.47,70.35,91.541,54.905c-5.5,2.127-10.648,5.425-15.042,9.914
				c-16.442,16.798-16.153,43.743,0.644,60.185c16.798,16.442,43.743,16.153,60.185-0.644c4.394-4.489,7.581-9.706,9.59-15.251
				C131.671,118.509,111.435,116.732,98.058,103.637z"/>
			<path style="fill:none;stroke:#261727;stroke-width:1.3;stroke-linecap:round;stroke-linejoin:round;stroke-miterlimit:10;" d="
				M91.541,54.905c-5.5,2.127-10.648,5.425-15.042,9.914c-16.442,16.798-16.153,43.743,0.644,60.185
				c16.798,16.442,43.743,16.153,60.185-0.644c4.394-4.489,7.581-9.706,9.59-15.251"/>
		</g>
		<g>
			<g>
				<g>
					<path style="fill:#FFA48A;" d="M33.587,56.123c0,0,5.907-15.269,15.226-17.35c10.018-2.237,9.713,6.919-0.958,12.568
						C40.539,55.214,33.587,56.123,33.587,56.123z"/>
				</g>
			</g>
			<g>
				<g>
					<path style="fill:#FFA48A;" d="M21.21,68.814c0,0-6.821-14.883-1.812-23.013c5.385-8.739,11.733-2.134,8.338,9.453
						C25.407,63.199,21.21,68.814,21.21,68.814z"/>
				</g>
			</g>
			<g>
				<g>
					<path style="fill:#FFA48A;" d="M15.157,77.273c0,0,15.724,4.56,23.029-1.589c7.853-6.611,0.387-11.92-10.575-6.858
						C20.094,72.296,15.157,77.273,15.157,77.273z"/>
				</g>
			</g>
			<g>
				<g>
					<path style="fill:#FFA48A;" d="M11.388,83.818c0,0-12.444-10.639-11.315-20.121c1.214-10.193,9.75-6.868,11.538,5.074
						C12.837,76.959,11.388,83.818,11.388,83.818z"/>
				</g>
			</g>
			<g>
				<g>
					<g>
						<path style="fill:#FFFFFF;" d="M44.436,46.59c-8.364,6.184-16.266,13.045-22.961,21.034
							C14.883,75.489,9.608,84.342,5.375,93.674c-1.111,2.45-2.153,4.929-3.141,7.431l1.099,0.163
							c2.632-6.637,5.66-13.114,9.298-19.264c5.055-8.545,11.342-16.291,18.574-23.087c4.375-4.112,9.05-7.891,13.875-11.458
							C45.642,47.045,44.997,46.175,44.436,46.59z"/>
					</g>
				</g>
			</g>
		</g>
	</g>
	<g>
		<g>
			<g>
				<path style="fill:#EE5D4A;" d="M91.934,267.967c-24.466,0.489-48.258,5.064-70.504,13.557
					c9.135,32.925,18.27,65.85,27.405,98.775c22.245-8.493,46.038-13.068,70.504-13.557c22.245-8.493,46.038-13.068,70.504-13.557
					c-9.135-32.925-18.27-65.85-27.404-98.775C137.972,254.899,114.179,259.474,91.934,267.967z"/>
				<path style="fill:#FFFFFF;" d="M90.518,262.863c-24.466,0.49-48.258,5.065-70.504,13.557
					c9.135,32.925,18.27,65.85,27.405,98.775c22.245-8.493,46.038-13.068,70.504-13.557c22.245-8.493,46.038-13.068,70.504-13.557
					c-9.135-32.925-18.27-65.85-27.405-98.775C136.556,249.795,112.763,254.37,90.518,262.863z"/>
				<g>
					
						<path style="fill:none;stroke:#261727;stroke-width:1.3;stroke-linecap:round;stroke-linejoin:round;stroke-miterlimit:10;" d="
						M53.579,283.028c10.362-2.263,20.953-3.744,31.699-4.429"/>
					
						<path style="fill:none;stroke:#261727;stroke-width:1.3;stroke-linecap:round;stroke-linejoin:round;stroke-miterlimit:10;" d="
						M34.731,294.839c16.754-5.531,34.293-8.904,52.264-10.05"/>
					
						<path style="fill:none;stroke:#261727;stroke-width:1.3;stroke-linecap:round;stroke-linejoin:round;stroke-miterlimit:10;" d="
						M36.448,301.03c16.754-5.531,34.294-8.904,52.264-10.05"/>
					
						<path style="fill:none;stroke:#261727;stroke-width:1.3;stroke-linecap:round;stroke-linejoin:round;stroke-miterlimit:10;" d="
						M38.166,307.221c16.754-5.532,34.294-8.904,52.264-10.05"/>
					
						<path style="fill:none;stroke:#261727;stroke-width:1.3;stroke-linecap:round;stroke-linejoin:round;stroke-miterlimit:10;" d="
						M39.883,313.411c16.754-5.531,34.293-8.904,52.264-10.05"/>
					
						<path style="fill:none;stroke:#261727;stroke-width:1.3;stroke-linecap:round;stroke-linejoin:round;stroke-miterlimit:10;" d="
						M41.601,319.602c16.754-5.531,34.293-8.904,52.264-10.05"/>
					
						<path style="fill:none;stroke:#261727;stroke-width:1.3;stroke-linecap:round;stroke-linejoin:round;stroke-miterlimit:10;" d="
						M43.319,325.792c16.754-5.531,34.293-8.904,52.264-10.05"/>
					
						<path style="fill:none;stroke:#261727;stroke-width:1.3;stroke-linecap:round;stroke-linejoin:round;stroke-miterlimit:10;" d="
						M45.036,331.983c16.754-5.531,34.293-8.904,52.264-10.05"/>
					
						<path style="fill:none;stroke:#261727;stroke-width:1.3;stroke-linecap:round;stroke-linejoin:round;stroke-miterlimit:10;" d="
						M46.754,338.174c16.754-5.531,34.293-8.904,52.264-10.05"/>
					
						<path style="fill:none;stroke:#261727;stroke-width:1.3;stroke-linecap:round;stroke-linejoin:round;stroke-miterlimit:10;" d="
						M48.471,344.364c16.754-5.531,34.294-8.904,52.264-10.05"/>
					
						<path style="fill:none;stroke:#261727;stroke-width:1.3;stroke-linecap:round;stroke-linejoin:round;stroke-miterlimit:10;" d="
						M50.189,350.555c16.754-5.531,34.294-8.904,52.264-10.05"/>
					
						<path style="fill:none;stroke:#261727;stroke-width:1.3;stroke-linecap:round;stroke-linejoin:round;stroke-miterlimit:10;" d="
						M51.906,356.746c8.377-2.766,16.95-4.992,25.676-6.67"/>
				</g>
				<g>
					
						<path style="fill:none;stroke:#261727;stroke-width:1.3;stroke-linecap:round;stroke-linejoin:round;stroke-miterlimit:10;" d="
						M124.082,269.471c10.362-2.263,20.953-3.744,31.699-4.429"/>
					
						<path style="fill:none;stroke:#261727;stroke-width:1.3;stroke-linecap:round;stroke-linejoin:round;stroke-miterlimit:10;" d="
						M105.235,281.282c16.754-5.532,34.294-8.904,52.264-10.05"/>
					
						<path style="fill:none;stroke:#261727;stroke-width:1.3;stroke-linecap:round;stroke-linejoin:round;stroke-miterlimit:10;" d="
						M106.952,287.473c16.754-5.531,34.293-8.904,52.264-10.05"/>
					
						<path style="fill:none;stroke:#261727;stroke-width:1.3;stroke-linecap:round;stroke-linejoin:round;stroke-miterlimit:10;" d="
						M108.67,293.663c16.754-5.531,34.293-8.904,52.264-10.05"/>
					
						<path style="fill:none;stroke:#261727;stroke-width:1.3;stroke-linecap:round;stroke-linejoin:round;stroke-miterlimit:10;" d="
						M110.387,299.854c16.754-5.531,34.293-8.904,52.264-10.05"/>
					
						<path style="fill:none;stroke:#261727;stroke-width:1.3;stroke-linecap:round;stroke-linejoin:round;stroke-miterlimit:10;" d="
						M112.105,306.045c16.754-5.531,34.294-8.904,52.264-10.05"/>
					
						<path style="fill:none;stroke:#261727;stroke-width:1.3;stroke-linecap:round;stroke-linejoin:round;stroke-miterlimit:10;" d="
						M113.822,312.235c16.754-5.531,34.293-8.904,52.264-10.05"/>
					
						<path style="fill:none;stroke:#261727;stroke-width:1.3;stroke-linecap:round;stroke-linejoin:round;stroke-miterlimit:10;" d="
						M115.54,318.426c16.754-5.532,34.293-8.904,52.264-10.05"/>
					
						<path style="fill:none;stroke:#261727;stroke-width:1.3;stroke-linecap:round;stroke-linejoin:round;stroke-miterlimit:10;" d="
						M117.257,324.616c16.754-5.531,34.293-8.904,52.264-10.05"/>
					
						<path style="fill:none;stroke:#261727;stroke-width:1.3;stroke-linecap:round;stroke-linejoin:round;stroke-miterlimit:10;" d="
						M118.975,330.807c16.754-5.531,34.294-8.904,52.264-10.05"/>
					
						<path style="fill:none;stroke:#261727;stroke-width:1.3;stroke-linecap:round;stroke-linejoin:round;stroke-miterlimit:10;" d="
						M120.693,336.998c16.754-5.531,34.293-8.904,52.264-10.05"/>
					
						<path style="fill:none;stroke:#261727;stroke-width:1.3;stroke-linecap:round;stroke-linejoin:round;stroke-miterlimit:10;" d="
						M122.41,343.189c8.377-2.766,16.95-4.992,25.676-6.669"/>
				</g>
				
					<line style="fill:none;stroke:#261727;stroke-width:1.3;stroke-linecap:round;stroke-linejoin:round;stroke-miterlimit:10;" x1="92.39" y1="269.611" x2="116.284" y2="355.732"/>
			</g>
			
				<polyline style="fill:none;stroke:#261727;stroke-width:1.1258;stroke-linecap:round;stroke-linejoin:round;stroke-miterlimit:10;" points="
				27.343,273.783 20.014,276.42 28.419,306.709 			"/>
			
				<line style="fill:none;stroke:#261727;stroke-width:1.1258;stroke-linecap:round;stroke-linejoin:round;stroke-miterlimit:10;" x1="161.022" y1="249.305" x2="186.626" y2="341.591"/>
		</g>
		<g>
			<g>
				<path style="fill:#EE5D4A;" d="M275.102,306.909c15.282,0.306,30.143,3.163,44.037,8.468
					c-5.706,20.565-11.411,41.13-17.117,61.696c-13.895-5.305-28.756-8.162-44.037-8.468c-13.895-5.305-28.756-8.162-44.038-8.468
					c5.706-20.565,11.412-41.13,17.117-61.696C246.346,298.747,261.207,301.605,275.102,306.909z"/>
				<path style="fill:#FFFFFF;" d="M275.986,303.721c15.282,0.306,30.143,3.163,44.038,8.468
					c-5.706,20.565-11.411,41.131-17.117,61.696c-13.895-5.305-28.756-8.162-44.038-8.468c-13.895-5.305-28.756-8.162-44.038-8.468
					c5.706-20.565,11.411-41.131,17.117-61.696C247.23,295.559,262.092,298.417,275.986,303.721z"/>
				<g>
					
						<path style="fill:none;stroke:#261727;stroke-width:1.3;stroke-linecap:round;stroke-linejoin:round;stroke-miterlimit:10;" d="
						M299.059,316.317c-6.472-1.413-13.087-2.339-19.799-2.767"/>
					
						<path style="fill:none;stroke:#261727;stroke-width:1.3;stroke-linecap:round;stroke-linejoin:round;stroke-miterlimit:10;" d="
						M310.832,323.694c-10.465-3.455-21.42-5.562-32.645-6.277"/>
					
						<path style="fill:none;stroke:#261727;stroke-width:1.3;stroke-linecap:round;stroke-linejoin:round;stroke-miterlimit:10;" d="
						M309.759,327.561c-10.465-3.455-21.42-5.562-32.645-6.277"/>
					
						<path style="fill:none;stroke:#261727;stroke-width:1.3;stroke-linecap:round;stroke-linejoin:round;stroke-miterlimit:10;" d="
						M308.686,331.428c-10.465-3.455-21.42-5.562-32.645-6.277"/>
					
						<path style="fill:none;stroke:#261727;stroke-width:1.3;stroke-linecap:round;stroke-linejoin:round;stroke-miterlimit:10;" d="
						M307.613,335.294c-10.465-3.455-21.42-5.562-32.645-6.277"/>
					
						<path style="fill:none;stroke:#261727;stroke-width:1.3;stroke-linecap:round;stroke-linejoin:round;stroke-miterlimit:10;" d="
						M306.54,339.161c-10.465-3.455-21.42-5.562-32.645-6.277"/>
					
						<path style="fill:none;stroke:#261727;stroke-width:1.3;stroke-linecap:round;stroke-linejoin:round;stroke-miterlimit:10;" d="
						M305.467,343.028c-10.465-3.455-21.42-5.561-32.645-6.277"/>
					
						<path style="fill:none;stroke:#261727;stroke-width:1.3;stroke-linecap:round;stroke-linejoin:round;stroke-miterlimit:10;" d="
						M304.395,346.895c-10.465-3.455-21.42-5.562-32.645-6.277"/>
					
						<path style="fill:none;stroke:#261727;stroke-width:1.3;stroke-linecap:round;stroke-linejoin:round;stroke-miterlimit:10;" d="
						M303.322,350.762c-10.465-3.455-21.42-5.562-32.645-6.277"/>
					
						<path style="fill:none;stroke:#261727;stroke-width:1.3;stroke-linecap:round;stroke-linejoin:round;stroke-miterlimit:10;" d="
						M302.249,354.628c-10.465-3.455-21.42-5.562-32.645-6.277"/>
					
						<path style="fill:none;stroke:#261727;stroke-width:1.3;stroke-linecap:round;stroke-linejoin:round;stroke-miterlimit:10;" d="
						M301.176,358.495c-10.465-3.455-21.42-5.562-32.645-6.277"/>
					
						<path style="fill:none;stroke:#261727;stroke-width:1.3;stroke-linecap:round;stroke-linejoin:round;stroke-miterlimit:10;" d="
						M300.104,362.362c-5.232-1.728-10.588-3.118-16.037-4.166"/>
				</g>
				<g>
					
						<path style="fill:none;stroke:#261727;stroke-width:1.3;stroke-linecap:round;stroke-linejoin:round;stroke-miterlimit:10;" d="
						M255.021,307.849c-6.472-1.414-13.087-2.339-19.799-2.767"/>
					
						<path style="fill:none;stroke:#261727;stroke-width:1.3;stroke-linecap:round;stroke-linejoin:round;stroke-miterlimit:10;" d="
						M266.794,315.226c-10.465-3.455-21.42-5.562-32.645-6.277"/>
					
						<path style="fill:none;stroke:#261727;stroke-width:1.3;stroke-linecap:round;stroke-linejoin:round;stroke-miterlimit:10;" d="
						M265.721,319.093c-10.465-3.455-21.42-5.562-32.645-6.277"/>
					
						<path style="fill:none;stroke:#261727;stroke-width:1.3;stroke-linecap:round;stroke-linejoin:round;stroke-miterlimit:10;" d="
						M264.648,322.96c-10.465-3.455-21.42-5.562-32.645-6.277"/>
					
						<path style="fill:none;stroke:#261727;stroke-width:1.3;stroke-linecap:round;stroke-linejoin:round;stroke-miterlimit:10;" d="
						M263.576,326.827c-10.465-3.455-21.42-5.562-32.645-6.277"/>
					
						<path style="fill:none;stroke:#261727;stroke-width:1.3;stroke-linecap:round;stroke-linejoin:round;stroke-miterlimit:10;" d="
						M262.503,330.693c-10.465-3.455-21.42-5.561-32.645-6.277"/>
					
						<path style="fill:none;stroke:#261727;stroke-width:1.3;stroke-linecap:round;stroke-linejoin:round;stroke-miterlimit:10;" d="
						M261.43,334.56c-10.465-3.455-21.42-5.562-32.645-6.277"/>
					
						<path style="fill:none;stroke:#261727;stroke-width:1.3;stroke-linecap:round;stroke-linejoin:round;stroke-miterlimit:10;" d="
						M260.357,338.427c-10.465-3.455-21.42-5.562-32.645-6.277"/>
					
						<path style="fill:none;stroke:#261727;stroke-width:1.3;stroke-linecap:round;stroke-linejoin:round;stroke-miterlimit:10;" d="
						M259.284,342.293c-10.465-3.455-21.42-5.562-32.645-6.277"/>
					
						<path style="fill:none;stroke:#261727;stroke-width:1.3;stroke-linecap:round;stroke-linejoin:round;stroke-miterlimit:10;" d="
						M258.212,346.16c-10.465-3.455-21.42-5.562-32.645-6.277"/>
					
						<path style="fill:none;stroke:#261727;stroke-width:1.3;stroke-linecap:round;stroke-linejoin:round;stroke-miterlimit:10;" d="
						M257.139,350.027c-10.465-3.455-21.42-5.561-32.645-6.277"/>
					
						<path style="fill:none;stroke:#261727;stroke-width:1.3;stroke-linecap:round;stroke-linejoin:round;stroke-miterlimit:10;" d="
						M256.066,353.894c-5.232-1.728-10.588-3.118-16.038-4.166"/>
				</g>
				
					<line style="fill:none;stroke:#261727;stroke-width:1.3;stroke-linecap:round;stroke-linejoin:round;stroke-miterlimit:10;" x1="274.817" y1="307.936" x2="259.893" y2="361.728"/>
			</g>
			
				<polyline style="fill:none;stroke:#261727;stroke-width:1.1258;stroke-linecap:round;stroke-linejoin:round;stroke-miterlimit:10;" points="
				315.446,310.542 320.024,312.189 314.774,331.108 			"/>
			
				<line style="fill:none;stroke:#261727;stroke-width:1.1258;stroke-linecap:round;stroke-linejoin:round;stroke-miterlimit:10;" x1="231.949" y1="295.253" x2="215.956" y2="352.896"/>
		</g>
	</g>
</g>
</svg>
